<?xml version="1.0" encoding="utf-8"?>
<!-- Generator: Adobe Illustrator 25.0.1, SVG Export Plug-In . SVG Version: 6.00 Build 0)  -->
<svg version="1.1" id="Capa_1" xmlns="http://www.w3.org/2000/svg" xmlns:xlink="http://www.w3.org/1999/xlink" x="0px" y="0px"
	 viewBox="0 0 114.4 113.7" style="enable-background:new 0 0 114.4 113.7;" xml:space="preserve">
<style type="text/css">
	.st0{clip-path:url(#SVGID_2_);}
	.st1{fill:#3E3E3E;}
	.st2{fill:#FFFFFF;}
	.st3{fill:#474747;}
</style>
<g>
	<defs>
		<circle id="SVGID_1_" cx="57.2" cy="56.8" r="56.4"/>
	</defs>
	<clipPath id="SVGID_2_">
		<use xlink:href="#SVGID_1_"  style="overflow:visible;"/>
	</clipPath>
	<g class="st0">
		<path class="st1" d="M-41-0.2h196.4v113.6H-41V-0.2z"/>
		<path class="st2" d="M-25.7,113.4L155.4,8.6v-8.8h-15.3L-41,104.5v8.9L-25.7,113.4z"/>
		<path class="st2" d="M-41,8.6l181.1,104.8h15.3v-8.9L-25.7-0.2H-41L-41,8.6z"/>
		<g>
			<path class="st3" d="M-31.3,113.4l91.5-53l-3-3.8L-41,113.4H-31.3z"/>
			<path class="st3" d="M57.2,56.6l98.2,56.8v-5.6l-95.2-55L57.2,56.6z"/>
			<path class="st3" d="M57.2,56.6l98.2-56.8h-9.7l-91.6,53L57.2,56.6z"/>
			<path class="st3" d="M-41,5.4l95.1,55l3.1-3.8L-41-0.2V5.4z"/>
		</g>
		<path class="st2" d="M150.3,44.6H71.2V4v-4.2h-5.4H48.6h-5.5V4v40.6h-79H-41v4.7v14.6v4.6h5.1h79v40.6v4.3h5.5h17.2h5.4v-4.3V68.5
			h79.1h5.1v-4.6V49.3v-4.7L150.3,44.6z"/>
		<path class="st3" d="M155.4,49.3H65.8V-0.2H48.6v49.5H-41v14.6h89.6v49.5h17.2V63.9h89.6V49.3z"/>
	</g>
</g>
</svg>
