<svg enable-background="new 0 0 114.4 113.7" viewBox="0 0 114.4 113.7" xmlns="http://www.w3.org/2000/svg" xmlns:xlink="http://www.w3.org/1999/xlink"><clipPath id="a"><circle cx="57.2" cy="56.8" r="56.4"/></clipPath><g clip-path="url(#a)"><path d="m-41-.2h196.4v113.6h-196.4z" fill="#094f75"/><path d="m-25.7 113.4 181.1-104.8v-8.8h-15.3l-181.1 104.7v8.9z" fill="#fff"/><path d="m-41 8.6 181.1 104.8h15.3v-8.9l-181.1-104.7h-15.3z" fill="#fff"/><g fill="#e2001a"><path d="m-31.3 113.4 91.5-53-3-3.8-98.2 56.8z"/><path d="m57.2 56.6 98.2 56.8v-5.6l-95.2-55z"/><path d="m57.2 56.6 98.2-56.8h-9.7l-91.6 53z"/><path d="m-41 5.4 95.1 55 3.1-3.8-98.2-56.8z"/></g><path d="m150.3 44.6h-79.1v-40.6-4.2h-5.4-17.2-5.5v4.2 40.6h-79-5.1v4.7 14.6 4.6h5.1 79v40.6 4.3h5.5 17.2 5.4v-4.3-40.6h79.1 5.1v-4.6-14.6-4.7z" fill="#fff"/><path d="m155.4 49.3h-89.6v-49.5h-17.2v49.5h-89.6v14.6h89.6v49.5h17.2v-49.5h89.6z" fill="#e2001a"/></g></svg>