<svg xmlns="http://www.w3.org/2000/svg" viewBox="0 0 181.13 181.13"><defs><style>.cls-1{fill:#fff;stroke:#1d1d1b;stroke-miterlimit:10;stroke-width:5px;}.cls-2{fill:#1d1d1b;}</style></defs><g id="Capa_2" data-name="Capa 2"><g id="Layer_1" data-name="Layer 1"><circle class="cls-1" cx="90.56" cy="90.56" r="88.06"/><path class="cls-2" d="M26.41,78.34A1.41,1.41,0,0,1,28,76.75h1.53a1.41,1.41,0,0,1,1.59,1.59v28.18H44.75a1.41,1.41,0,0,1,1.58,1.58v1a1.41,1.41,0,0,1-1.58,1.58H28a1.4,1.4,0,0,1-1.59-1.58Z"/><path class="cls-2" d="M64.14,76.18A16.91,16.91,0,0,1,81.52,93.46c0,10-7.3,17.76-17.38,17.76s-17.42-7.78-17.42-17.76A16.94,16.94,0,0,1,64.14,76.18Zm0,30.67c7.2,0,12.48-5.81,12.48-13.39,0-7.35-5.28-12.91-12.48-12.91S51.61,86.11,51.61,93.46C51.61,101,56.94,106.85,64.14,106.85Z"/><path class="cls-2" d="M103.26,76.18a20.16,20.16,0,0,1,11.14,3.16,1.41,1.41,0,0,1,.33,2.17l-.67,1c-.57.87-1.29.92-2.21.44a15.44,15.44,0,0,0-8.35-2.4c-7.78,0-12.62,5.8-12.62,13,0,7.73,5.37,13.25,12.38,13.25a12.84,12.84,0,0,0,9.65-4.37V97.73H109a1.42,1.42,0,0,1-1.58-1.58v-1A1.44,1.44,0,0,1,109,93.6h6.68a1.42,1.42,0,0,1,1.58,1.59v13.87a1.4,1.4,0,0,1-1.58,1.58h-.92c-1,0-1.58-.52-1.58-1.34v-1.25c0-.57,0-1,0-1h-.1a14.25,14.25,0,0,1-10.46,4.22C93.47,111.22,86,104,86,93.79S93.32,76.18,103.26,76.18Z"/><path class="cls-2" d="M139.5,76.18a16.91,16.91,0,0,1,17.38,17.28c0,10-7.3,17.76-17.38,17.76s-17.42-7.78-17.42-17.76A16.94,16.94,0,0,1,139.5,76.18Zm0,30.67c7.2,0,12.48-5.81,12.48-13.39,0-7.35-5.28-12.91-12.48-12.91S127,86.11,127,93.46C127,101,132.3,106.85,139.5,106.85Z"/></g></g></svg>